<svg xmlns="http://www.w3.org/2000/svg" viewBox="-235 373 140 48" width="140" height="48"><path d="M-223.5 420.4h7.8v-22.8h13.7v22.8h7.8v-16c.4-2.7 2.1-6.5 8.2-7 0 0 8.9-1.6 10 7v16h7.8v-19.3c-1.8-13.7-19.6-9.5-19.6-9.5-4.2 1.2-5.8 3-6.5 4v-3.9h-21.5c-.6-7.5 6.5-7.4 6.5-7.4 7-.2 7.3 4.7 7.3 4.7h7.8c0-8.8-11.2-9.9-11.2-9.9-11-.9-14.8 3.1-14.8 3.1-3.5 3.2-3.4 8.3-3.3 9.5h-7v5.8h7v22.9zm79.9-7.7c-2 2.6-4.3 3.4-7.1 3.5-2.4.1-7.6.6-7.7-3.7-.1-4.1 6.3-3.9 10.5-4.2 0 0 4.3 0 5.1-1.3 0 0 .1-.1.1 0 .1.1.8 3.4-.9 5.7m-.1-20.9c-8.6-1.6-13.6 0-13.7 0-8.4 2.1-8.5 9.4-8.5 9.4h8s.1-5.7 8.6-5c0 0 6.2.3 6.5 3.3 0 0 2 3.6-6.5 4.1-8.6.5-18.8.4-17.7 9.1 0 0-.2 8.3 13.8 8.1 0 0 7.5.2 10.6-3.9v.1l.3 3.2h7.8l-.2-17.2c.6-9.7-9-11.2-9-11.2m36.3 19.3c-1.2 2.7-3.6 4.2-7.9 4.2 0 0-9.7.7-10-8.9v-.3c.3-9.5 10-8.9 10-8.9 4.4 0 6.7 1.5 7.9 4.2h7.9c0-1.6-.9-3.4-.9-3.4-1.9-3.3-6.4-7.1-16.9-6.4-2.9.2-5.1.5-7 1.3-3.5 1.4-9.2 5.3-9.1 12.9v.9c-.1 7.6 5.6 11.5 9.1 12.9 1.9.8 4.2 1.1 7 1.3 7 .4 11.3-1.1 14-3.1 3.8-3 3.9-6.7 3.9-6.7h-8z" style="fill:#E1A925"/></svg>